<?xml version="1.0" standalone="no"?>
<!DOCTYPE svg PUBLIC "-//W3C//DTD SVG 1.1//EN" "http://www.w3.org/Graphics/SVG/1.1/DTD/svg11.dtd" >
<svg>
<metadata>
Created by FontForge 20090622 at Tue Jun 27 22:31:55 2017
 By deploy user
&#194;&#169; 2016 Feng Zhang's foundry Hinted and space fixed.
</metadata>
<defs>
<font id="Bangers_and_Mash-Cyrillic-2" horiz-adv-x="431" >
  <font-face 
    font-family="Bangers and Mash Cyrillic 2"
    font-weight="400"
    font-stretch="normal"
    units-per-em="1000"
    panose-1="2 11 6 3 5 3 2 2 2 4"
    ascent="800"
    descent="-200"
    x-height="754"
    cap-height="754"
    bbox="-116 -93 810 937"
    underline-thickness="0"
    underline-position="0"
    unicode-range="U+0020-U+201D"
  />
<missing-glyph horiz-adv-x="500" 
d="M12 -40l222 963h458l-222 -963h-458zM190 102h167l157 678h-168z" />
    <glyph glyph-name=".notdef" horiz-adv-x="500" 
d="M12 -40l222 963h458l-222 -963h-458zM190 102h167l157 678h-168z" />
    <glyph glyph-name=".null" horiz-adv-x="0" 
 />
    <glyph glyph-name="nonmarkingreturn" horiz-adv-x="193" 
 />
    <glyph glyph-name="space" unicode=" " horiz-adv-x="696" 
 />
    <glyph glyph-name="paragraph" unicode="&#xb6;" horiz-adv-x="459" 
d="M122 -1l80 378q-56 17 -82 56t-26 83.5t18.5 86.5t53.5 76q79 77 198 77q62 0 161 -33q-46 -193 -81.5 -377l-58.5 -312l-107 -11l64 333h-36l-74 -342z" />
    <glyph glyph-name="Ubreve" unicode="&#x16c;" horiz-adv-x="1032" 
 />
    <glyph glyph-name="uni0400" unicode="&#x400;" horiz-adv-x="360" 
d="M219 754l-39 -5l-79 65t-71 57q37 7 70 11.5t68 13.5l36 -69.5l36 -69.5q-6 -1 -11 -2zM388 565q-97 -9 -176 -21q-10 -38 -14 -56l-10 -53l156 33l-9 -135q-123 -22 -175 -34q-3 -13 -7 -39l-6 -38l181 26l-12 -182q-144 -12 -357 -67l116 700l326 47z" />
    <glyph glyph-name="afii10023" unicode="&#x401;" horiz-adv-x="360" 
d="M207 544q-10 -38 -14 -56l-10 -53l156 33l-9 -135q-123 -22 -175 -34q-3 -13 -7 -39l-6 -38l181 26l-12 -182q-144 -12 -357 -67l116 700l326 47l-13 -181q-97 -9 -176 -21zM57 775q0 33 34 60t71 27q21 0 36.5 -12t15.5 -31q0 -34 -34 -60.5t-71 -26.5q-22 0 -37 11.5
t-15 31.5zM237 797q0 32 35.5 58.5t72.5 26.5q21 0 36.5 -11.5t15.5 -30.5q0 -33 -34.5 -59t-71.5 -26q-22 0 -38 11.5t-16 30.5z" />
    <glyph glyph-name="uni0402" unicode="&#x402;" horiz-adv-x="627" 
d="M244 51l-156 -48l82 532l-98 -17l-8 185l382 48l-8 -182l-122 -10l-24 -148q42 21 86 21h6h4q16 0 36 -6q66 -19 104 -68q36 -47 36 -110q0 -59 -28 -99q-74 -106 -206 -106q-20 0 -38 3l20 106q14 -3 24 -3q42 2 66 36q16 21 16 41q0 12 -6 26q-16 37 -70 37
q-28 0 -60 -13z" />
    <glyph glyph-name="uni0403" unicode="&#x403;" horiz-adv-x="361" 
d="M170 765v38l75 70.5t65 63.5q2 -38 3 -71.5t5 -68.5l-74 -27l-74 -27v11v11zM212 544q-8 -27 -12 -54q-62 -316 -76 -448l-168 -43l114 700l334 47l-10 -181q-100 -9 -182 -21z" />
    <glyph glyph-name="afii10053" unicode="&#x404;" horiz-adv-x="394" 
d="M131 249q0 -41 21 -69.5t60 -28.5q50 0 106 76l32 -117q-95 -107 -197 -107t-148 107q-28 62 -28 140q0 61 14 120q30 129 112 237q99 130 214 130q102 0 150 -110l-111 -121q-22 23 -51 23q-27 0 -58.5 -27.5t-57.5 -73.5l114 12l-6 -147q-105 -9 -164 -17
q-2 -20 -2 -27z" />
    <glyph glyph-name="uni0405" unicode="&#x405;" horiz-adv-x="434" 
d="M225 256q-15 0 -80 -11.5t-80 -11.5q-46 0 -69 25q-18 20 -18 53q0 7 1 15q12 109 139 251q129 145 224 153h7q84 0 84 -136q0 -29 -5 -77q-9 -3 -33.5 -13t-40.5 -16l-74 -28q0 46 -25 46q-30 0 -65 -33q-30 -29 -30 -58q0 -5 1 -9q3 -18 37 -18q17 0 62 7t61 7
q53 0 76.5 -22t23.5 -71q0 -62 -47 -135q-60 -94 -170 -159q-58 -35 -113 -35q-50 0 -100 29q26 62 78 173q33 -22 67 -22q38 0 83.5 22.5t45.5 48.5q0 25 -40 25z" />
    <glyph glyph-name="afii10055" unicode="&#x406;" horiz-adv-x="217" 
d="M100 689l168 32q-101 -387 -133 -679l-156 -43z" />
    <glyph glyph-name="afii10056" unicode="&#x407;" horiz-adv-x="217" 
d="M100 689l168 32q-101 -387 -133 -679l-156 -43zM37 775q0 33 34.5 60t71.5 27q21 0 36 -11.5t15 -31.5q0 -34 -33.5 -60.5t-70.5 -26.5q-22 0 -37.5 11.5t-15.5 31.5zM218 797q0 33 35 59t72 26q22 0 37.5 -11.5t15.5 -30.5q0 -33 -35 -59t-72 -26q-22 0 -37.5 11.5
t-15.5 30.5z" />
    <glyph glyph-name="uni0408" unicode="&#x408;" horiz-adv-x="325" 
d="M208 689l166 32q-101 -404 -131 -679l-150 -42q-113 22 -139 28l-31 7l85 172l113 -19z" />
    <glyph glyph-name="afii10058" unicode="&#x409;" horiz-adv-x="524" 
d="M492 278q0 20 -35 20q-31 0 -89 -15q-9 -48 -17 -100q141 42 141 95zM117 25l-184 -25q126 311 220 633l260 46q-27 -160 -29 -321q82 17 102 19q10 1 18 1q56 0 78 -43q9 -18 9 -41q0 -50 -36 -102.5t-88 -86.5q-84 -55 -287 -99l70 558z" />
    <glyph glyph-name="afii10059" unicode="&#x40a;" horiz-adv-x="960" 
d="M682 241q0 20 -35 20q-32 0 -91 -15l-18 -100q144 42 144 95zM431 667l-69 -311l68 10l45 276l179 24l-81 -340q67 21 114 21t75 -15q48 -24 48 -76q0 -71 -110 -169q-70 -63 -172 -91q-60 -17 -103.5 -17t-66.5 3l48 260l-73 -14l-24 -188l-161 -40l108 638z" />
    <glyph glyph-name="uni040B" unicode="&#x40b;" horiz-adv-x="627" 
d="M268 27l-172 -23l76 512l-90 -14l-6 178l402 46l-12 -177l-120 -9l-12 -70l108 8l28 -7l14 -9l10 -5l22 -23l22 -39l12 -93l-30 -266l-172 -35l38 161l20 112v37l-4 16l-8 12l-10 5l-32 1l-36 2z" />
    <glyph glyph-name="uni040C" unicode="&#x40c;" 
d="M156 765v38l74 70.5l66 63.5q2 -38 2 -71.5t6 -68.5l-74 -27l-74 -27v11v11zM-50 -1l118 690l168 32q-16 -61 -32 -136q72 63 154 143l124 -81l-192 -170l106 -398l-176 -94l-68 369q-32 -171 -48 -312z" />
    <glyph glyph-name="uni040D" unicode="&#x40d;" 
d="M255 754l-39 -5l-79 65t-71 57q37 7 70 11.5t68 13.5l36 -69.5l36 -69.5q-6 -1 -11 -2zM68 689l181 32q-47 -176 -79 -340l130 308l181 32q-104 -401 -131 -679l-168 -43l45 266l-109 -223l-168 -43z" />
    <glyph glyph-name="afii10062" unicode="&#x40e;" horiz-adv-x="377" 
d="M280 916h82q-20 -75 -65 -122t-108 -47q-61 0 -87 47q-17 31 -17 73q0 23 5 49h82q-4 -17 -3 -26q3 -51 41 -51q48 0 70 77zM274 704l156 -27q-210 -369 -334 -670l-150 10l104 217l-82 393l190 88q-4 -61 -4 -116q0 -73 8 -131z" />
    <glyph glyph-name="afii10145" unicode="&#x40f;" horiz-adv-x="458" 
d="M90 689l166 32q-66 -257 -116 -552l90 18l88 502l166 32q-100 -396 -114 -518l-22 -96l-8 -52l-64 -9l-18 -2q-9 -1 -38 -7q-21 -83 -22 -96l-10 -2l-20 -3l-42 -7l-30 -5l26 93l-148 -36z" />
    <glyph glyph-name="afii10017" unicode="&#x410;" horiz-adv-x="398" 
d="M-116 -13q143 363 232 706l297 50q-46 -267 -46 -628v-72l-207 -48l15 122l-66 -13l-20 -85zM190 248l45 369h-1l-91 -378z" />
    <glyph glyph-name="afii10018" unicode="&#x411;" horiz-adv-x="440" 
d="M294 275q0 20 -34 20q-30 0 -87 -15q-9 -48 -17 -100q138 42 138 95zM427 300q0 -74 -61.5 -139.5t-141.5 -110.5q-95 -53 -218 -53q-26 0 -39 1q1 7 4.5 26l5.5 30l39 238q32 162 68 417l334 47l-12 -181q-109 -10 -188 -23l-35 -193q42 20 125 26q9 1 18 1
q101 0 101 -86z" />
    <glyph glyph-name="afii10019" unicode="&#x412;" horiz-adv-x="440" 
d="M308 385q9 1 18 1q101 0 101 -86q0 -74 -61.5 -139.5t-141.5 -110.5q-95 -53 -218 -53q-26 0 -39 1q37 197 84 538q13 95 18 151q4 1 117 25t154 24q65 0 97 -22q31 -22 31 -66q0 -133 -160 -263zM294 275q0 20 -34 20q-30 0 -87 -15q-9 -48 -17 -100q138 42 138 95z
M307 535q0 17 -26 17q-21 0 -54 -10q-3 -10 -8 -32t-7 -32l-14 -65q71 43 102 102q7 11 7 20z" />
    <glyph glyph-name="afii10020" unicode="&#x413;" horiz-adv-x="361" 
d="M208 544q-8 -27 -12 -54q-62 -316 -76 -448l-167 -43l114 700l334 47l-11 -181q-99 -9 -182 -21z" />
    <glyph glyph-name="afii10021" unicode="&#x414;" horiz-adv-x="499" 
d="M237 155l56 462h-1l-114 -466zM437 -69l-158 -17l19 105l-198 -16l12 -96l-144 12l-39 220l75 7q84 216 170 547l297 50q-48 -279 -48 -550v-32l65 1q-44 -165 -51 -231z" />
    <glyph glyph-name="afii10022" unicode="&#x415;" horiz-adv-x="360" 
d="M207 544q-10 -38 -14 -56l-10 -53l156 33l-9 -135q-123 -22 -175 -34q-3 -13 -7 -39l-6 -38l181 26l-12 -182q-144 -12 -357 -67l116 700l326 47l-13 -181q-97 -9 -176 -21z" />
    <glyph glyph-name="afii10024" unicode="&#x416;" horiz-adv-x="722" 
d="M352 574l19 115l168 32q-17 -61 -33 -136q73 63 155 143l123 -81l-192 -170l107 -398l-176 -94l-68 369q-33 -171 -49 -312l-154 -43l57 330l-186 -334l-176 94l266 415l-83 143l123 81z" />
    <glyph glyph-name="afii10025" unicode="&#x417;" horiz-adv-x="438" 
d="M315 395q110 -3 110 -95q0 -73 -61 -149q-54 -57 -129 -105q-63 -37 -120 -37q-24 0 -47 6q-77 22 -107 159q76 36 169 72q13 -38 43 -38q9 0 20 3q93 30 94 69q0 20 -29 20h-14q-36 0 -67 -8l-35 116l54 25q70 43 102 82q7 11 7 20q0 17 -26 17h-4q-41 0 -173 -53
q-37 127 -51 167q79 37 139.5 53t147.5 17q65 0 97 -22q31 -22 31 -66v-3q0 -129 -151 -250z" />
    <glyph glyph-name="afii10026" unicode="&#x418;" 
d="M80 689l181 32q-47 -176 -79 -340l130 308l181 32q-104 -401 -131 -679l-168 -43l45 266l-109 -223l-168 -43z" />
    <glyph glyph-name="afii10027" unicode="&#x419;" 
d="M348 933h82q-19 -76 -64 -122.5t-108 -46.5t-88 46q-16 31 -16 74q0 23 4 49h82q-2 -14 -2 -26q0 -51 40 -51q49 0 70 77zM68 689l181 32q-47 -176 -79 -340l130 308l181 32q-104 -401 -131 -679l-168 -43l45 266l-109 -223l-168 -43z" />
    <glyph glyph-name="afii10028" unicode="&#x41a;" horiz-adv-x="429" 
d="M78 689l168 32q-17 -61 -33 -136q73 63 155 143l123 -81l-192 -170l107 -398l-176 -94l-68 369q-33 -171 -49 -312l-154 -43z" />
    <glyph glyph-name="afii10029" unicode="&#x41b;" horiz-adv-x="398" 
d="M88 18l-204 -31q143 363 232 706l297 50q-46 -267 -46 -628v-72l-197 -48l65 622h-1z" />
    <glyph glyph-name="afii10030" unicode="&#x41c;" horiz-adv-x="627" 
d="M591 149q0 -67 1 -100l-200 -35l35 427l-128 -473l-108 -15l65 602l-139 -534l-203 -27q132 334 201 680l234 38l-34 -358l91 331l225 39q-40 -314 -40 -575z" />
    <glyph glyph-name="afii10031" unicode="&#x41d;" 
d="M80 689l181 32q-47 -176 -79 -340l81 16l49 292l181 32q-104 -401 -131 -679l-168 -43l45 266l-83 -18q-19 -129 -26 -205l-168 -43z" />
    <glyph glyph-name="afii10032" unicode="&#x41e;" horiz-adv-x="483" 
d="M347 764q102 0 146 -116q23 -61 23 -130q0 -70 -21 -149q-36 -136 -125 -252q-107 -140 -229 -140q-106 0 -149 115q-21 57 -21 127q0 69 21 150q36 138 124 253q109 142 231 142zM131 234q0 -41 22 -67t60 -26q54 0 93.5 51t55.5 115q12 48 12 93q0 26 -4 51
q-12 70 -58 70q-35 0 -73 -41.5t-63 -91.5t-36 -90q-9 -34 -9 -64z" />
    <glyph glyph-name="afii10033" unicode="&#x41f;" 
d="M80 689l422 65q-113 -434 -140 -712l-168 -43l123 605q-15 -2 -82 -17q-98 -461 -105 -545l-168 -43z" />
    <glyph glyph-name="afii10034" unicode="&#x420;" horiz-adv-x="359" 
d="M323 736q66 0 99 -22q31 -22 31 -66v-3q-3 -184 -310 -382q-22 -125 -32 -221l-155 -43q6 43 23 131l43 231q53 299 53 326v3q150 46 248 46zM296 533q0 17 -25 17q-20 0 -73 -16q-3 -11 -7 -31.5t-5 -23.5l-11 -53q89 44 117 95q4 7 4 12z" />
    <glyph glyph-name="afii10035" unicode="&#x421;" horiz-adv-x="394" 
d="M131 249q0 -41 21 -69.5t60 -28.5q50 0 106 76l32 -117q-95 -107 -197 -107t-148 107q-28 62 -28 140q0 61 14 120q30 129 112 237q99 130 214 130q102 0 150 -110l-111 -121q-22 23 -51 23q-52 0 -108 -89q-45 -71 -59 -136q-7 -28 -7 -55z" />
    <glyph glyph-name="afii10036" unicode="&#x422;" horiz-adv-x="356" 
d="M439 730l-5 -181q-83 -5 -130 -10q-64 -270 -87 -497l-165 -43l90 520q-9 -1 -26.5 -4t-26.5 -5l-52 -10l-12 183z" />
    <glyph glyph-name="afii10037" unicode="&#x423;" horiz-adv-x="377" 
d="M331 704l157 -27q-210 -369 -334 -670l-150 10l103 217l-82 393l191 88q-4 -61 -4 -116q0 -71 7 -131z" />
    <glyph glyph-name="afii10038" unicode="&#x424;" horiz-adv-x="555" 
d="M396 540q-13 -100 -20 -127l-10 -50q66 31 92 57q25 25 33 47q8 25 8 42q0 11 -3 19q-8 18 -34 18h-5h-6q-20 0 -55 -6zM216 338q4 36 8 55q8 63 12 81l8 42q-52 -17 -75.5 -36t-37.5 -55q-9 -29 -9 -49q0 -38 32 -45q6 -1 13 -1q21 0 49 8zM277 697l4 27l147 33l-6 -32
q20 3 45 3t54 -3q131 -12 132 -139q-7 -235 -313 -361q-20 -71 -31 -174l-156 -46q2 14 24 146l11 56q-14 -2 -30 -2q-25 0 -54 5q-112 29 -128 136q-1 12 -1 23q0 235 302 328z" />
    <glyph glyph-name="afii10039" unicode="&#x425;" horiz-adv-x="395" 
d="M357 68l-155 -96l-17 94l-18 97l-47 -85l-22.5 -41l-23.5 -43l-170 15l221 348q-36 153 -79 285l138 103l53 -210l127 199l127 -45q-107 -153 -209 -327z" />
    <glyph glyph-name="afii10040" unicode="&#x426;" horiz-adv-x="458" 
d="M86 689l167 32q-67 -257 -117 -552l90 18l88 502l167 32q-101 -396 -115 -518l84 14l-59 -238l-160 -39l23 104q-137 -28 -284 -63z" />
    <glyph glyph-name="afii10041" unicode="&#x427;" horiz-adv-x="432" 
d="M60 687l169 34q-10 -34 -20 -86q-41 -169 -41 -213q6 -49 49 -49q18 0 43 8l56 308l178 32q-101 -387 -133 -679l-164 -43q18 132 42 255q-44 -10 -79 -10q-134 0 -139 151q0 41 9 108z" />
    <glyph glyph-name="afii10042" unicode="&#x428;" horiz-adv-x="670" 
d="M-38 -1l118 690l181 32q-48 -179 -112 -553l81 13l82 508l181 32q-86 -332 -111 -533l76 14l95 501l180 31q-107 -390 -135 -669z" />
    <glyph glyph-name="afii10043" unicode="&#x429;" horiz-adv-x="721" 
d="M-38 -1l118 690l181 32q-49 -184 -111 -550l81 10l81 508l181 32q-86 -335 -110 -530l78 11l91 501l180 31q-82 -298 -116 -516l95 11l-81 -262l-170 -16l33 101z" />
    <glyph glyph-name="afii10044" unicode="&#x42a;" horiz-adv-x="440" 
d="M294 275q0 20 -34 20q-30 0 -87 -15q-9 -48 -17 -100q138 42 138 95zM6 -3q-26 0 -39 1q1 7 4.5 26l5.5 30l41 238q27 153 42 261l-73 -16l-1 158q127 14 277 42q-68 -310 -77 -368q42 20 125 26q10 1 19 1q82 0 96 -58q3 -24 3 -38q-2 -74 -63.5 -140t-141.5 -110
q-95 -53 -218 -53z" />
    <glyph glyph-name="afii10045" unicode="&#x42b;" horiz-adv-x="623" 
d="M294 275q0 20 -34 20q-30 0 -87 -15q-9 -48 -17 -100q138 42 138 95zM6 -3q-26 0 -39 1q1 7 4.5 26l5.5 30l41 238q27 153 66 417l187 30q-76 -313 -85 -370q42 20 125 26q9 1 18 1q83 0 93 -62q3 -9 3 -22q0 -7 -1 -16q-7 -72 -68 -145q-63 -68 -152.5 -111t-197.5 -43z
M500 689l168 32q-101 -387 -133 -679l-155 -43z" />
    <glyph glyph-name="afii10046" unicode="&#x42c;" horiz-adv-x="440" 
d="M294 275q0 20 -34 20q-30 0 -87 -15q-9 -48 -17 -100q138 42 138 95zM6 -3q-26 0 -39 1q1 7 4.5 26l5.5 30l39 238q32 162 68 417l187 30q-71 -287 -85 -370q42 20 125 26q10 1 19 1q82 0 96 -58q1 -20 1 -30v-8q0 -74 -61.5 -139.5t-141.5 -110.5q-95 -53 -218 -53z" />
    <glyph glyph-name="afii10047" unicode="&#x42d;" horiz-adv-x="448" 
d="M183 199q51 19 92 75l13 26q-70 -7 -125 -9l-11 135l161 14q5 23 5 40v8q-6 27 -12 41q-11 26 -56 27q-68 -2 -117 -48l-101 138q103 100 234 100h9q26 0 54 -5q95 -20 127 -107q20 -54 20 -126v-9q0 -39 -7 -85q-22 -141 -115 -263q-62 -74 -125 -108q-61 -33 -116 -33
q-31 0 -60 10q-84 29 -91 178l169 34v-9q0 -26 29 -28q10 0 23 4z" />
    <glyph glyph-name="afii10048" unicode="&#x42e;" horiz-adv-x="699" 
d="M355 234q0 -41 22.5 -67t60.5 -26q54 0 93.5 51t55.5 115q12 48 12 93q0 26 -4 51q-12 70 -59 70q-35 0 -73 -41.5t-63 -91.5t-36 -90q-9 -34 -9 -64zM571 764q103 0 147 -116q22 -59 22 -130q0 -73 -20 -149q-36 -136 -125 -252q-107 -140 -230 -140q-105 0 -148 115
q-22 60 -22 127q0 24 1 37q-20 -5 -40 -9q-19 -129 -26 -205l-168 -43l118 690l181 32q-47 -176 -79 -340l41 9q38 126 118 232q109 142 230 142z" />
    <glyph glyph-name="afii10049" unicode="&#x42f;" horiz-adv-x="437" 
d="M191 532q-30 -30 -30 -57q0 -24 25 -46q27 -21 74 -21l30 148q-11 2 -22 2q-39 0 -77 -26zM238 257l-112 -179q-23 -33 -53 -84l-166 15l197 297q-109 37 -109 149q0 8 1 16q16 176 228 247q85 16 142 16q20 0 37 -2l92 -5q-105 -403 -132 -683l-168 -43z" />
    <glyph glyph-name="afii10065" unicode="&#x430;" horiz-adv-x="398" 
d="M-116 -13q143 363 232 706l297 50q-46 -267 -46 -628v-72l-207 -48l15 122l-66 -13l-20 -85zM190 248l45 369h-1l-91 -378z" />
    <glyph glyph-name="afii10066" unicode="&#x431;" horiz-adv-x="440" 
d="M294 275q0 20 -34 20q-30 0 -87 -15q-9 -48 -17 -100q138 42 138 95zM427 300q0 -74 -61.5 -139.5t-141.5 -110.5q-95 -53 -218 -53q-26 0 -39 1q1 7 4.5 26l5.5 30l39 238q32 162 68 417l334 47l-12 -181q-109 -10 -188 -23l-35 -193q42 20 125 26q9 1 18 1
q101 0 101 -86z" />
    <glyph glyph-name="afii10067" unicode="&#x432;" horiz-adv-x="440" 
d="M308 385q9 1 18 1q101 0 101 -86q0 -74 -61.5 -139.5t-141.5 -110.5q-95 -53 -218 -53q-26 0 -39 1q37 197 84 538q13 95 18 151q4 1 117 25t154 24q65 0 97 -22q31 -22 31 -66v-3q0 -130 -160 -260zM294 275q0 20 -34 20q-30 0 -87 -15q-9 -48 -17 -100q138 42 138 95z
M307 535q0 17 -26 17q-21 0 -54 -10q-3 -10 -8 -32t-7 -32l-14 -65q71 43 102 102q7 11 7 20z" />
    <glyph glyph-name="afii10068" unicode="&#x433;" horiz-adv-x="361" 
d="M208 544q-8 -27 -12 -54q-62 -316 -76 -448l-167 -43l114 700l334 47l-11 -181q-99 -9 -182 -21z" />
    <glyph glyph-name="afii10069" unicode="&#x434;" horiz-adv-x="499" 
d="M237 155l56 462h-1l-114 -466zM437 -69l-158 -17l19 105l-198 -16l12 -96l-144 12l-39 220l75 7q84 216 170 547l297 50q-48 -279 -48 -550v-32l65 1q-44 -165 -51 -231z" />
    <glyph glyph-name="afii10070" unicode="&#x435;" horiz-adv-x="360" 
d="M207 544q-10 -38 -14 -56l-10 -53l156 33l-9 -135q-123 -22 -175 -34q-3 -13 -7 -39l-6 -38l181 26l-12 -182q-144 -12 -357 -67l116 700l326 47l-13 -181q-97 -9 -176 -21z" />
    <glyph glyph-name="afii10072" unicode="&#x436;" horiz-adv-x="722" 
d="M352 574l19 115l168 32q-17 -61 -33 -136q73 63 155 143l123 -81l-192 -170l107 -398l-176 -94l-68 369q-33 -171 -49 -312l-154 -43l57 330l-186 -334l-176 94l266 415l-83 143l123 81z" />
    <glyph glyph-name="afii10073" unicode="&#x437;" horiz-adv-x="438" 
d="M315 395q110 -3 110 -95q0 -73 -61 -149q-54 -57 -129 -105q-63 -37 -120 -37q-24 0 -47 6q-77 22 -107 159q76 36 169 72q13 -38 43 -38q9 0 20 3q93 30 94 69q0 20 -29 20h-14q-36 0 -67 -8l-35 116l54 25q70 43 102 82q7 11 7 20q0 17 -26 17h-4q-41 0 -173 -53
q-37 127 -51 167q79 37 139.5 53t147.5 17q65 0 97 -22q31 -22 31 -66v-3q0 -129 -151 -250z" />
    <glyph glyph-name="afii10074" unicode="&#x438;" 
d="M80 689l181 32q-47 -176 -79 -340l130 308l181 32q-104 -401 -131 -679l-168 -43l45 266l-109 -223l-168 -43z" />
    <glyph glyph-name="afii10075" unicode="&#x439;" 
d="M360 933h82q-19 -76 -64 -122.5t-108 -46.5t-88 46q-16 31 -16 74q0 23 4 49h82q-2 -14 -2 -26q0 -51 40 -51q49 0 70 77zM80 689l181 32q-47 -176 -79 -340l130 308l181 32q-104 -401 -131 -679l-168 -43l45 266l-109 -223l-168 -43z" />
    <glyph glyph-name="afii10076" unicode="&#x43a;" horiz-adv-x="429" 
d="M78 689l168 32q-17 -61 -33 -136q73 63 155 143l123 -81l-192 -170l107 -398l-176 -94l-68 369q-33 -171 -49 -312l-154 -43z" />
    <glyph glyph-name="afii10077" unicode="&#x43b;" horiz-adv-x="398" 
d="M89 19l-205 -32q143 363 232 706l297 50q-46 -267 -46 -628v-72l-207 -48l75 622h-1z" />
    <glyph glyph-name="afii10078" unicode="&#x43c;" horiz-adv-x="627" 
d="M591 149q0 -67 1 -100l-200 -35l35 427l-128 -473l-108 -15l65 602l-139 -534l-203 -27q132 334 201 680l234 38l-34 -358l91 331l225 39q-40 -314 -40 -575z" />
    <glyph glyph-name="afii10079" unicode="&#x43d;" 
d="M80 689l181 32q-47 -176 -79 -340l81 16l49 292l181 32q-104 -401 -131 -679l-168 -43l45 266l-83 -18q-19 -129 -26 -205l-168 -43z" />
    <glyph glyph-name="afii10080" unicode="&#x43e;" horiz-adv-x="483" 
d="M347 764q102 0 146 -116q23 -61 23 -130q0 -70 -21 -149q-36 -136 -125 -252q-107 -140 -229 -140q-106 0 -149 115q-21 57 -21 127q0 69 21 150q36 138 124 253q109 142 231 142zM131 234q0 -41 22 -67t60 -26q54 0 93.5 51t55.5 115q12 48 12 93q0 26 -4 51
q-12 70 -58 70q-35 0 -73 -41.5t-63 -91.5t-36 -90q-9 -34 -9 -64z" />
    <glyph glyph-name="afii10081" unicode="&#x43f;" 
d="M80 689l422 65q-113 -434 -140 -712l-168 -43l123 605q-15 -2 -82 -17q-98 -461 -105 -545l-168 -43z" />
    <glyph glyph-name="afii10082" unicode="&#x440;" horiz-adv-x="359" 
d="M323 736q66 0 99 -22q31 -22 31 -66v-3q-3 -184 -310 -382q-22 -125 -32 -221l-155 -43q6 43 23 131l43 231q53 299 53 326v3q150 46 248 46zM296 533q0 17 -25 17q-20 0 -73 -16q-3 -11 -7 -31.5t-5 -23.5l-11 -53q89 44 117 95q4 7 4 12z" />
    <glyph glyph-name="afii10083" unicode="&#x441;" horiz-adv-x="394" 
d="M131 249q0 -41 21 -69.5t60 -28.5q50 0 106 76l32 -117q-95 -107 -197 -107t-148 107q-28 62 -28 140q0 61 14 120q30 129 112 237q99 130 214 130q102 0 150 -110l-111 -121q-22 23 -51 23q-52 0 -108 -89q-45 -71 -59 -136q-7 -28 -7 -55z" />
    <glyph glyph-name="afii10084" unicode="&#x442;" horiz-adv-x="356" 
d="M439 730l-5 -181q-83 -5 -130 -10q-64 -270 -87 -497l-165 -43l90 520q-9 -1 -26.5 -4t-26.5 -5l-52 -10l-12 183z" />
    <glyph glyph-name="afii10085" unicode="&#x443;" horiz-adv-x="377" 
d="M331 704l157 -27q-210 -369 -334 -670l-150 10l103 217l-82 393l191 88q-4 -61 -4 -116q0 -71 7 -131z" />
    <glyph glyph-name="afii10086" unicode="&#x444;" horiz-adv-x="555" 
d="M396 540q-13 -100 -20 -127l-10 -50q66 31 92 57q25 25 33 47q8 25 8 42q0 11 -3 19q-8 18 -34 18h-5h-6q-20 0 -55 -6zM216 338q4 36 8 55q8 63 12 81l8 42q-52 -17 -75.5 -36t-37.5 -55q-9 -29 -9 -49q0 -38 32 -45q6 -1 13 -1q21 0 49 8zM277 697l4 27l147 33l-6 -32
q20 3 45 3t54 -3q131 -12 132 -139q-7 -235 -313 -361q-20 -71 -31 -174l-156 -46q2 14 24 146l11 56q-14 -2 -30 -2q-25 0 -54 5q-112 29 -128 136q-1 12 -1 23q0 235 302 328z" />
    <glyph glyph-name="afii10087" unicode="&#x445;" horiz-adv-x="395" 
d="M357 68l-155 -96l-17 94l-18 97l-47 -85l-22.5 -41l-23.5 -43l-170 15l221 348q-36 153 -79 285l138 103l53 -210l127 199l127 -45q-107 -153 -209 -327z" />
    <glyph glyph-name="afii10088" unicode="&#x446;" horiz-adv-x="458" 
d="M86 689l167 32q-67 -257 -117 -552l90 18l88 502l167 32q-101 -396 -115 -518l84 14l-59 -238l-160 -39l23 104q-137 -28 -284 -63z" />
    <glyph glyph-name="afii10089" unicode="&#x447;" horiz-adv-x="432" 
d="M60 687l169 34q-10 -34 -20 -86q-41 -169 -41 -213q6 -49 49 -49q18 0 43 8l56 308l178 32q-101 -387 -133 -679l-164 -43q18 132 42 255q-44 -10 -79 -10q-134 0 -139 151q0 41 9 108z" />
    <glyph glyph-name="afii10090" unicode="&#x448;" horiz-adv-x="670" 
d="M-38 -1l118 690l181 32q-48 -179 -112 -553l81 13l82 508l181 32q-86 -332 -111 -533l76 14l95 501l180 31q-107 -390 -135 -669z" />
    <glyph glyph-name="afii10091" unicode="&#x449;" horiz-adv-x="721" 
d="M-38 -1l118 690l181 32q-49 -184 -111 -550l81 10l81 508l181 32q-86 -335 -110 -530l78 11l91 501l180 31q-82 -298 -116 -516l95 11l-81 -262l-170 -16l33 101z" />
    <glyph glyph-name="afii10092" unicode="&#x44a;" horiz-adv-x="440" 
d="M294 275q0 20 -34 20q-30 0 -87 -15q-9 -48 -17 -100q138 42 138 95zM6 -3q-26 0 -39 1q1 7 4.5 26l5.5 30l41 238q27 153 42 261l-73 -16l-1 158q127 14 277 42q-68 -310 -77 -368q42 20 125 26q10 1 19 1q82 0 96 -58q3 -24 3 -38q-2 -74 -63.5 -140t-141.5 -110
q-95 -53 -218 -53z" />
    <glyph glyph-name="afii10093" unicode="&#x44b;" horiz-adv-x="623" 
d="M294 275q0 20 -34 20q-30 0 -87 -15q-9 -48 -17 -100q138 42 138 95zM6 -3q-26 0 -39 1q1 7 4.5 26l5.5 30l41 238q27 153 66 417l187 30q-76 -313 -85 -370q42 20 125 26q9 1 18 1q83 0 93 -62q3 -9 3 -22q0 -7 -1 -16q-7 -72 -68 -145q-63 -68 -152.5 -111t-197.5 -43z
M500 689l168 32q-101 -387 -133 -679l-155 -43z" />
    <glyph glyph-name="afii10094" unicode="&#x44c;" horiz-adv-x="440" 
d="M294 275q0 20 -34 20q-30 0 -87 -15q-9 -48 -17 -100q138 42 138 95zM6 -3q-26 0 -39 1q1 7 4.5 26l5.5 30l39 238q32 162 68 417l187 30q-71 -287 -85 -370q42 20 125 26q10 1 19 1q82 0 96 -58q1 -20 1 -30v-8q0 -74 -61.5 -139.5t-141.5 -110.5q-95 -53 -218 -53z" />
    <glyph glyph-name="afii10095" unicode="&#x44d;" horiz-adv-x="448" 
d="M183 199q51 19 92 75l13 26q-70 -7 -125 -9l-11 135l161 14q5 23 5 40v8q-2 18 -12 41q-16 26 -56 27q-68 -2 -117 -48l-101 138q103 100 234 100q31 0 63 -5q93 -20 127 -107q20 -54 20 -126q0 -44 -7 -94q-21 -140 -115 -263q-58 -69 -125 -108q-90 -33 -114 -33h-2
q-31 0 -60 10q-84 29 -91 178l169 34v-5q0 -32 29 -32q10 0 23 4z" />
    <glyph glyph-name="afii10096" unicode="&#x44e;" horiz-adv-x="699" 
d="M355 234q0 -41 22.5 -67t60.5 -26q54 0 93.5 51t55.5 115q12 48 12 93q0 26 -4 51q-12 70 -59 70q-35 0 -73 -41.5t-63 -91.5t-36 -90q-9 -34 -9 -64zM571 764q103 0 147 -116q22 -59 22 -130q0 -73 -20 -149q-36 -136 -125 -252q-107 -140 -230 -140q-105 0 -148 115
q-22 60 -22 127q0 24 1 37q-20 -5 -40 -9q-19 -129 -26 -205l-168 -43l118 690l181 32q-47 -176 -79 -340l41 9q38 126 118 232q109 142 230 142z" />
    <glyph glyph-name="afii10097" unicode="&#x44f;" horiz-adv-x="437" 
d="M191 532q-30 -30 -30 -57q0 -24 25 -46q27 -21 74 -21l30 148q-11 2 -22 2q-39 0 -77 -26zM238 257l-112 -179q-23 -33 -53 -84l-166 15l197 297q-109 37 -109 149q0 8 1 16q16 176 228 247q85 16 142 16q20 0 37 -2l92 -5q-105 -403 -132 -683l-168 -43z" />
    <glyph glyph-name="uni0450" unicode="&#x450;" horiz-adv-x="360" 
d="M219 754l-39 -5l-79 65t-71 57q37 7 70 11.5t68 13.5l36 -69.5l36 -69.5q-6 -1 -11 -2zM388 565q-97 -9 -176 -21q-10 -38 -14 -56l-10 -53l156 33l-9 -135q-123 -22 -175 -34q-3 -13 -7 -39l-6 -38l181 26l-12 -182q-144 -12 -357 -67l116 700l326 47z" />
    <glyph glyph-name="afii10071" unicode="&#x451;" horiz-adv-x="360" 
d="M207 544q-10 -38 -14 -56l-10 -53l156 33l-9 -135q-123 -22 -175 -34q-3 -13 -7 -39l-6 -38l181 26l-12 -182q-144 -12 -357 -67l116 700l326 47l-13 -181q-97 -9 -176 -21zM57 775q0 33 34 60t71 27q21 0 36.5 -12t15.5 -31q0 -34 -34 -60.5t-71 -26.5q-22 0 -37 11.5
t-15 31.5zM237 797q0 32 35.5 58.5t72.5 26.5q21 0 36.5 -11.5t15.5 -30.5q0 -33 -34.5 -59t-71.5 -26q-22 0 -38 11.5t-16 30.5z" />
    <glyph glyph-name="uni0452" unicode="&#x452;" horiz-adv-x="627" 
d="M244 51l-156 -48l82 532l-98 -17l-8 185l382 48l-8 -182l-122 -10l-24 -148q42 21 86 21h6h4q16 0 36 -6q66 -19 104 -68q36 -47 36 -110q0 -59 -28 -99q-74 -106 -206 -106q-20 0 -38 3l20 106q14 -3 24 -3q42 2 66 36q16 21 16 41q0 12 -6 26q-16 37 -70 37
q-28 0 -60 -13z" />
    <glyph glyph-name="uni0453" unicode="&#x453;" horiz-adv-x="361" 
d="M170 765v38l75 70.5t65 63.5q2 -38 3 -71.5t5 -68.5l-74 -27l-74 -27v11v11zM212 544q-8 -27 -12 -54q-62 -316 -76 -448l-168 -43l114 700l334 47l-10 -181q-100 -9 -182 -21z" />
    <glyph glyph-name="afii10101" unicode="&#x454;" horiz-adv-x="394" 
d="M131 249q0 -41 21 -69.5t60 -28.5q50 0 106 76l32 -117q-95 -107 -197 -107t-148 107q-28 62 -28 140q0 61 14 120q30 129 112 237q99 130 214 130q102 0 150 -110l-111 -121q-22 23 -51 23q-27 0 -58.5 -27.5t-57.5 -73.5l114 12l-6 -147q-105 -9 -164 -17
q-2 -20 -2 -27z" />
    <glyph glyph-name="uni0455" unicode="&#x455;" horiz-adv-x="434" 
d="M225 256q-15 0 -80 -11.5t-80 -11.5q-46 0 -69 25q-18 20 -18 53q0 7 1 15q12 109 139 251q129 145 224 153h7q84 0 84 -136q0 -29 -5 -77q-9 -3 -33.5 -13t-40.5 -16l-74 -28q0 46 -25 46q-30 0 -65 -33q-30 -29 -30 -58q0 -5 1 -9q3 -18 37 -18q17 0 62 7t61 7
q53 0 76.5 -22t23.5 -71q0 -62 -47 -135q-60 -94 -170 -159q-58 -35 -113 -35q-50 0 -100 29q26 62 78 173q33 -22 67 -22q38 0 83.5 22.5t45.5 48.5q0 25 -40 25z" />
    <glyph glyph-name="afii10103" unicode="&#x456;" horiz-adv-x="217" 
d="M100 689l168 32q-101 -387 -133 -679l-156 -43z" />
    <glyph glyph-name="afii10104" unicode="&#x457;" horiz-adv-x="217" 
d="M100 689l168 32q-101 -387 -133 -679l-156 -43zM37 775q0 33 34.5 60t71.5 27q21 0 36 -11.5t15 -31.5q0 -34 -33.5 -60.5t-70.5 -26.5q-22 0 -37.5 11.5t-15.5 31.5zM218 797q0 33 35 59t72 26q22 0 37.5 -11.5t15.5 -30.5q0 -33 -35 -59t-72 -26q-22 0 -37.5 11.5
t-15.5 30.5z" />
    <glyph glyph-name="uni0458" unicode="&#x458;" horiz-adv-x="325" 
d="M208 689l166 32q-101 -404 -131 -679l-150 -42q-113 22 -139 28l-31 7l85 172l113 -19z" />
    <glyph glyph-name="uni0459" unicode="&#x459;" horiz-adv-x="670" 
d="M560 282q0 20 -34 20q-30 0 -87 -15q-9 -48 -17 -100q138 42 138 95zM193 28l-180 -25q123 313 215 636l255 46q-27 -160 -29 -322q81 17 100 19q10 1 18 1q55 0 76 -43q9 -18 9 -42q0 -50 -35 -102.5t-86 -86.5q-83 -56 -281 -100l68 561z" />
    <glyph glyph-name="uni045A" unicode="&#x45a;" horiz-adv-x="670" 
d="M530 244q0 20 -34 20q-30 0 -87 -15q-9 -48 -17 -100q138 42 138 95zM289 671l-66 -312l65 10l43 277l172 24l-78 -341q65 21 110 21t72 -15q46 -24 46 -76q0 -71 -106 -170q-67 -63 -165 -91q-58 -17 -99.5 -17t-63.5 3l46 261l-70 -14l-23 -189l-155 -40l104 640z" />
    <glyph glyph-name="afii10108" unicode="&#x45b;" horiz-adv-x="627" 
d="M268 27l-172 -23l76 512l-90 -14l-6 178l402 46l-12 -177l-120 -9l-12 -70l108 8l28 -7l14 -9l10 -5l22 -23l22 -39l12 -93l-30 -266l-172 -35l38 161l20 112v37l-4 16l-8 12l-10 5l-32 1l-36 2z" />
    <glyph glyph-name="uni045C" unicode="&#x45c;" 
d="M156 765v38l74 71l66 63q2 -38 2 -71q0 -34 6 -69l-74 -27l-74 -27v11v11zM68 689l168 32q-4 -18 -9 -37q-12 -46 -23 -98l43 37l111 105l62 -40l62 -41l-192 -170l53 -199l53 -199l-176 -94l-68 368l-17 -97q-20 -114 -31 -214l-154 -43l59 345z" />
    <glyph glyph-name="uni045D" unicode="&#x45d;" 
d="M255 754l-39 -5l-79 65t-71 57q37 7 70 11.5t68 13.5l36 -69.5l36 -69.5q-6 -1 -11 -2zM68 689l181 32q-47 -176 -79 -340l130 308l181 32q-104 -401 -131 -679l-168 -43l45 266l-109 -223l-168 -43z" />
    <glyph glyph-name="afii10110" unicode="&#x45e;" horiz-adv-x="377" 
d="M280 916h82q-20 -75 -65 -122t-108 -47q-61 0 -87 47q-17 31 -17 73q0 23 5 49h82q-4 -17 -3 -26q3 -51 41 -51q48 0 70 77zM274 704l156 -27q-210 -369 -334 -670l-150 10l104 217l-82 393l190 88q-4 -61 -4 -116q0 -73 8 -131z" />
    <glyph glyph-name="uni045F" unicode="&#x45f;" horiz-adv-x="458" 
d="M90 689l166 32q-66 -257 -116 -552l90 18l88 502l166 32q-100 -396 -114 -518l-22 -96l-8 -52l-64 -9l-18 -2q-9 -1 -38 -7q-21 -83 -22 -96l-10 -2l-20 -3l-42 -7l-30 -5l26 93l-148 -36z" />
    <glyph glyph-name="afii10050" unicode="&#x490;" horiz-adv-x="361" 
d="M394 568q-102 -12 -186 -24q-5 -15 -12 -54q-63 -330 -76 -448l-167 -43l114 700l183 26l12 64l180 1q-36 -109 -48 -222z" />
    <glyph glyph-name="afii10098" unicode="&#x491;" horiz-adv-x="361" 
d="M394 568q-102 -12 -186 -24q-5 -15 -12 -54q-63 -330 -76 -448l-167 -43l114 700l183 26l12 64l180 1q-36 -109 -48 -222z" />
    <glyph glyph-name="quoteleft" unicode="&#x2018;" horiz-adv-x="241" 
d="M316 788q-63 -168 -87 -309l-188 -29l95 324z" />
    <glyph glyph-name="quoteright" unicode="&#x2019;" horiz-adv-x="241" 
d="M316 788q-63 -168 -87 -309l-188 -29l95 324z" />
    <glyph glyph-name="quotedblleft" unicode="&#x201c;" horiz-adv-x="483" 
d="M308 788q-63 -168 -87 -309l-189 -29l95 324zM558 788q-63 -168 -87 -309l-189 -29l95 324z" />
    <glyph glyph-name="quotedblright" unicode="&#x201d;" horiz-adv-x="483" 
d="M308 788q-63 -168 -87 -309l-189 -29l95 324zM558 788q-63 -168 -87 -309l-189 -29l95 324z" />
    <glyph glyph-name="glyph170" horiz-adv-x="227" 
 />
  </font>
</defs>
</svg>
